<svg xmlns="http://www.w3.org/2000/svg" width="23.125" height="15.417" viewBox="0 0 23.125 15.417">
  <path id="Icon_awesome-eye" data-name="Icon awesome-eye" d="M22.985,11.622A12.877,12.877,0,0,0,11.563,4.5,12.879,12.879,0,0,0,.14,11.623a1.3,1.3,0,0,0,0,1.172,12.877,12.877,0,0,0,11.423,7.122,12.879,12.879,0,0,0,11.423-7.123A1.3,1.3,0,0,0,22.985,11.622ZM11.563,17.99a5.781,5.781,0,1,1,5.781-5.781A5.781,5.781,0,0,1,11.563,17.99Zm0-9.635a3.826,3.826,0,0,0-1.016.152,1.921,1.921,0,0,1-2.686,2.686,3.845,3.845,0,1,0,3.7-2.838Z" transform="translate(0 -4.5)" fill="#226262"/>
</svg>
