<svg xmlns="http://www.w3.org/2000/svg" width="36" height="31.5" viewBox="0 0 36 31.5">
  <path id="Icon_awesome-sort-amount-up-alt" data-name="Icon awesome-sort-amount-up-alt" d="M16.875,6.75h4.5A1.125,1.125,0,0,0,22.5,5.625V3.375A1.125,1.125,0,0,0,21.375,2.25h-4.5A1.125,1.125,0,0,0,15.75,3.375v2.25A1.125,1.125,0,0,0,16.875,6.75Zm0,9h9A1.125,1.125,0,0,0,27,14.625v-2.25a1.125,1.125,0,0,0-1.125-1.125h-9a1.125,1.125,0,0,0-1.125,1.125v2.25A1.125,1.125,0,0,0,16.875,15.75Zm18,13.5h-18a1.125,1.125,0,0,0-1.125,1.125v2.25a1.125,1.125,0,0,0,1.125,1.125h18A1.125,1.125,0,0,0,36,32.625v-2.25A1.125,1.125,0,0,0,34.875,29.25Zm-18-4.5h13.5A1.125,1.125,0,0,0,31.5,23.625v-2.25a1.125,1.125,0,0,0-1.125-1.125h-13.5a1.125,1.125,0,0,0-1.125,1.125v2.25A1.125,1.125,0,0,0,16.875,24.75ZM1.125,11.25H4.5V32.625A1.125,1.125,0,0,0,5.625,33.75h2.25A1.125,1.125,0,0,0,9,32.625V11.25h3.375a1.125,1.125,0,0,0,.8-1.92L7.545,2.58a1.125,1.125,0,0,0-1.59,0L.33,9.33A1.126,1.126,0,0,0,1.125,11.25Z" transform="translate(0 -2.25)" fill="#c8c8c8"/>
</svg>
