<svg xmlns="http://www.w3.org/2000/svg" width="56.571" height="56.558" viewBox="0 0 56.571 56.558">
  <path id="Icon_awesome-instagram" data-name="Icon awesome-instagram" d="M28.287,16.016a14.5,14.5,0,1,0,14.5,14.5A14.478,14.478,0,0,0,28.287,16.016Zm0,23.928a9.427,9.427,0,1,1,9.427-9.427A9.445,9.445,0,0,1,28.287,39.944ZM46.763,15.423a3.382,3.382,0,1,1-3.382-3.382A3.374,3.374,0,0,1,46.763,15.423Zm9.6,3.433c-.215-4.531-1.249-8.544-4.569-11.851s-7.32-4.341-11.851-4.569c-4.67-.265-18.666-.265-23.335,0-4.518.215-8.531,1.249-11.851,4.556S.421,14.312.193,18.843c-.265,4.67-.265,18.666,0,23.335.215,4.531,1.249,8.544,4.569,11.851s7.32,4.341,11.851,4.569c4.67.265,18.666.265,23.335,0,4.531-.215,8.544-1.249,11.851-4.569s4.341-7.32,4.569-11.851c.265-4.67.265-18.653,0-23.323ZM50.334,47.188a9.545,9.545,0,0,1-5.376,5.376C41.235,54.041,32.4,53.7,28.287,53.7s-12.961.328-16.672-1.136a9.545,9.545,0,0,1-5.376-5.376C4.762,43.465,5.1,34.631,5.1,30.517S4.775,17.556,6.239,13.845a9.545,9.545,0,0,1,5.376-5.376c3.723-1.477,12.557-1.136,16.672-1.136s12.961-.328,16.672,1.136a9.545,9.545,0,0,1,5.376,5.376C51.811,17.568,51.47,26.4,51.47,30.517S51.811,43.478,50.334,47.188Z" transform="translate(0.005 -2.238)" fill="#25e2c2"/>
</svg>
